<svg xmlns="http://www.w3.org/2000/svg" xmlns:xlink="http://www.w3.org/1999/xlink" width="512" zoomAndPan="magnify" viewBox="0 0 384 383.999986" height="512" preserveAspectRatio="xMidYMid meet" version="1.0"><defs><clipPath id="825a7e2809"><path d="M 31.417969 132 L 45 132 L 45 252 L 31.417969 252 Z M 31.417969 132 " clip-rule="nonzero"/></clipPath><clipPath id="7971c7646b"><path d="M 94 31.417969 L 290 31.417969 L 290 352.417969 L 94 352.417969 Z M 94 31.417969 " clip-rule="nonzero"/></clipPath><clipPath id="53b74b5411"><path d="M 339 132 L 352.417969 132 L 352.417969 252 L 339 252 Z M 339 132 " clip-rule="nonzero"/></clipPath></defs><rect x="-38.4" width="460.8" fill="#ffffff" y="-38.399999" height="460.799983" fill-opacity="1"/><rect x="-38.4" width="460.8" fill="#f6f3ed" y="-38.399999" height="460.799983" fill-opacity="1"/><g clip-path="url(#825a7e2809)"><path fill="#046147" d="M 37.714844 132.171875 C 34.238281 132.171875 31.417969 134.992188 31.417969 138.46875 L 31.417969 245.519531 C 31.417969 248.996094 34.238281 251.816406 37.714844 251.816406 C 41.191406 251.816406 44.011719 248.996094 44.011719 245.519531 L 44.011719 138.46875 C 44.011719 134.992188 41.191406 132.171875 37.714844 132.171875 Z M 37.714844 132.171875 " fill-opacity="1" fill-rule="nonzero"/></g><g clip-path="url(#7971c7646b)"><path fill="#046147" d="M 283.300781 157.359375 L 264.410156 157.359375 L 264.410156 103.835938 C 264.410156 63.902344 231.925781 31.417969 191.996094 31.417969 C 152.0625 31.417969 119.578125 63.902344 119.578125 103.835938 L 119.578125 157.359375 L 100.6875 157.359375 C 97.207031 157.359375 94.390625 160.179688 94.390625 163.65625 L 94.390625 217.183594 C 94.390625 268.886719 134.800781 311.320312 185.695312 314.578125 L 185.695312 339.976562 L 163.65625 339.976562 C 160.179688 339.976562 157.359375 342.796875 157.359375 346.273438 C 157.359375 349.75 160.179688 352.570312 163.65625 352.570312 L 220.332031 352.570312 C 223.808594 352.570312 226.628906 349.75 226.628906 346.273438 C 226.628906 342.796875 223.808594 339.976562 220.332031 339.976562 L 198.292969 339.976562 L 198.292969 314.578125 C 249.1875 311.320312 289.597656 268.886719 289.597656 217.183594 L 289.597656 163.65625 C 289.597656 160.179688 286.78125 157.359375 283.300781 157.359375 Z M 157.359375 106.984375 L 226.628906 106.984375 C 230.105469 106.984375 232.925781 109.800781 232.925781 113.28125 C 232.925781 116.757812 230.105469 119.578125 226.628906 119.578125 L 157.359375 119.578125 C 153.882812 119.578125 151.0625 116.757812 151.0625 113.28125 C 151.0625 109.800781 153.882812 106.984375 157.359375 106.984375 Z M 157.359375 138.46875 L 226.628906 138.46875 C 230.105469 138.46875 232.925781 141.289062 232.925781 144.765625 C 232.925781 148.242188 230.105469 151.0625 226.628906 151.0625 L 157.359375 151.0625 C 153.882812 151.0625 151.0625 148.242188 151.0625 144.765625 C 151.0625 141.289062 153.882812 138.46875 157.359375 138.46875 Z M 157.359375 169.953125 L 226.628906 169.953125 C 230.105469 169.953125 232.925781 172.773438 232.925781 176.25 C 232.925781 179.730469 230.105469 182.546875 226.628906 182.546875 L 157.359375 182.546875 C 153.882812 182.546875 151.0625 179.730469 151.0625 176.25 C 151.0625 172.773438 153.882812 169.953125 157.359375 169.953125 Z M 157.359375 201.441406 L 226.628906 201.441406 C 230.105469 201.441406 232.925781 204.257812 232.925781 207.738281 C 232.925781 211.214844 230.105469 214.035156 226.628906 214.035156 L 157.359375 214.035156 C 153.882812 214.035156 151.0625 211.214844 151.0625 207.738281 C 151.0625 204.257812 153.882812 201.441406 157.359375 201.441406 Z M 277.003906 217.183594 C 277.003906 264.058594 238.871094 302.195312 191.996094 302.195312 C 145.121094 302.195312 106.984375 264.058594 106.984375 217.183594 L 106.984375 169.953125 L 119.578125 169.953125 L 119.578125 217.183594 C 119.578125 257.113281 152.0625 289.597656 191.996094 289.597656 C 231.925781 289.597656 264.410156 257.113281 264.410156 217.183594 L 264.410156 169.953125 L 277.003906 169.953125 Z M 277.003906 217.183594 " fill-opacity="1" fill-rule="nonzero"/></g><path fill="#046147" d="M 62.902344 163.65625 C 59.425781 163.65625 56.605469 166.476562 56.605469 169.953125 L 56.605469 214.035156 C 56.605469 217.511719 59.425781 220.332031 62.902344 220.332031 C 66.382812 220.332031 69.199219 217.511719 69.199219 214.035156 L 69.199219 169.953125 C 69.199219 166.476562 66.382812 163.65625 62.902344 163.65625 Z M 62.902344 163.65625 " fill-opacity="1" fill-rule="nonzero"/><path fill="#046147" d="M 321.085938 163.65625 C 317.605469 163.65625 314.789062 166.476562 314.789062 169.953125 L 314.789062 214.035156 C 314.789062 217.511719 317.605469 220.332031 321.085938 220.332031 C 324.5625 220.332031 327.382812 217.511719 327.382812 214.035156 L 327.382812 169.953125 C 327.382812 166.476562 324.5625 163.65625 321.085938 163.65625 Z M 321.085938 163.65625 " fill-opacity="1" fill-rule="nonzero"/><g clip-path="url(#53b74b5411)"><path fill="#046147" d="M 346.273438 132.171875 C 342.796875 132.171875 339.976562 134.992188 339.976562 138.46875 L 339.976562 245.519531 C 339.976562 248.996094 342.796875 251.816406 346.273438 251.816406 C 349.75 251.816406 352.570312 248.996094 352.570312 245.519531 L 352.570312 138.46875 C 352.570312 134.992188 349.75 132.171875 346.273438 132.171875 Z M 346.273438 132.171875 " fill-opacity="1" fill-rule="nonzero"/></g></svg>