<svg xmlns="http://www.w3.org/2000/svg" xmlns:xlink="http://www.w3.org/1999/xlink" width="512" zoomAndPan="magnify" viewBox="0 0 384 383.999986" height="512" preserveAspectRatio="xMidYMid meet" version="1.0"><defs><clipPath id="7296cf785a"><path d="M 52 27.960938 L 332 27.960938 L 332 355.710938 L 52 355.710938 Z M 52 27.960938 " clip-rule="nonzero"/></clipPath></defs><rect x="-38.4" width="460.8" fill="#ffffff" y="-38.399999" height="460.799983" fill-opacity="1"/><rect x="-38.4" width="460.8" fill="#f6f3ed" y="-38.399999" height="460.799983" fill-opacity="1"/><g clip-path="url(#7296cf785a)"><path fill="#046147" d="M 331.480469 116.972656 L 331.472656 116.71875 C 331.328125 113.566406 331.230469 110.234375 331.175781 106.523438 C 330.90625 88.4375 316.527344 73.472656 298.4375 72.460938 C 260.71875 70.355469 231.539062 58.058594 206.605469 33.757812 L 206.394531 33.554688 C 198.261719 26.097656 185.996094 26.097656 177.859375 33.554688 L 177.648438 33.757812 C 152.714844 58.058594 123.535156 70.355469 85.816406 72.464844 C 67.730469 73.472656 53.347656 88.4375 53.078125 106.527344 C 53.023438 110.210938 52.925781 113.546875 52.785156 116.71875 L 52.769531 117.3125 C 52.035156 155.773438 51.125 203.644531 67.136719 247.09375 C 75.941406 270.984375 89.277344 291.753906 106.773438 308.828125 C 126.695312 328.269531 152.789062 343.707031 184.332031 354.703125 C 185.359375 355.0625 186.425781 355.351562 187.511719 355.570312 C 189.042969 355.875 190.585938 356.027344 192.128906 356.027344 C 193.667969 356.027344 195.214844 355.875 196.742188 355.570312 C 197.828125 355.351562 198.902344 355.058594 199.933594 354.699219 C 231.4375 343.679688 257.507812 328.238281 277.414062 308.796875 C 294.898438 291.71875 308.234375 270.945312 317.046875 247.046875 C 333.121094 203.46875 332.210938 155.507812 331.480469 116.972656 Z M 298.984375 240.386719 C 282.09375 286.179688 247.617188 317.628906 193.582031 336.527344 C 193.386719 336.59375 193.183594 336.652344 192.96875 336.695312 C 192.414062 336.800781 191.84375 336.800781 191.277344 336.691406 C 191.070312 336.648438 190.863281 336.59375 190.671875 336.527344 C 136.578125 317.664062 102.078125 286.234375 85.203125 240.4375 C 70.441406 200.386719 71.277344 156.445312 72.015625 117.679688 L 72.019531 117.464844 C 72.171875 114.132812 72.269531 110.644531 72.328125 106.808594 C 72.445312 98.777344 78.84375 92.132812 86.890625 91.683594 C 108.234375 90.492188 126.988281 86.367188 144.21875 79.074219 C 161.425781 71.792969 176.707031 61.523438 190.9375 47.6875 C 191.660156 47.078125 192.597656 47.074219 193.320312 47.6875 C 207.546875 61.523438 222.832031 71.792969 240.035156 79.074219 C 257.265625 86.367188 276.019531 90.492188 297.367188 91.683594 C 305.414062 92.132812 311.8125 98.777344 311.925781 106.8125 C 311.984375 110.667969 312.085938 114.15625 312.234375 117.464844 C 312.972656 156.273438 313.785156 200.253906 298.984375 240.386719 Z M 298.984375 240.386719 " fill-opacity="1" fill-rule="nonzero"/></g><path fill="#046147" d="M 192.121094 110.242188 C 147.039062 110.242188 110.363281 146.921875 110.363281 192 C 110.363281 237.082031 147.039062 273.761719 192.121094 273.761719 C 237.203125 273.761719 273.882812 237.082031 273.882812 192 C 273.882812 146.921875 237.203125 110.242188 192.121094 110.242188 Z M 192.121094 254.507812 C 157.65625 254.507812 129.613281 226.46875 129.613281 192 C 129.613281 157.53125 157.65625 129.492188 192.121094 129.492188 C 226.585938 129.492188 254.628906 157.53125 254.628906 192 C 254.628906 226.46875 226.585938 254.507812 192.121094 254.507812 Z M 192.121094 254.507812 " fill-opacity="1" fill-rule="nonzero"/><path fill="#046147" d="M 215.621094 166.617188 L 177.644531 204.59375 L 167.339844 194.285156 C 163.578125 190.527344 157.484375 190.527344 153.726562 194.285156 C 149.96875 198.046875 149.96875 204.140625 153.726562 207.898438 L 170.839844 225.011719 C 172.71875 226.890625 175.183594 227.832031 177.644531 227.832031 C 180.109375 227.832031 182.570312 226.890625 184.453125 225.011719 L 229.234375 180.230469 C 232.992188 176.46875 232.992188 170.375 229.234375 166.617188 C 225.472656 162.855469 219.378906 162.855469 215.621094 166.617188 Z M 215.621094 166.617188 " fill-opacity="1" fill-rule="nonzero"/></svg>