<svg xmlns="http://www.w3.org/2000/svg" xmlns:xlink="http://www.w3.org/1999/xlink" width="512" zoomAndPan="magnify" viewBox="0 0 384 383.999986" height="512" preserveAspectRatio="xMidYMid meet" version="1.0"><defs><clipPath id="11a1837e9f"><path d="M 13.292969 25 L 271 25 L 271 359 L 13.292969 359 Z M 13.292969 25 " clip-rule="nonzero"/></clipPath></defs><rect x="-38.4" width="460.8" fill="#ffffff" y="-38.399999" height="460.799983" fill-opacity="1"/><rect x="-38.4" width="460.8" fill="#f6f3ed" y="-38.399999" height="460.799983" fill-opacity="1"/><g clip-path="url(#11a1837e9f)"><path fill="#046147" d="M 255.289062 358.886719 L 28.90625 358.886719 C 27.882812 358.882812 26.867188 358.78125 25.863281 358.582031 C 24.855469 358.382812 23.882812 358.085938 22.933594 357.691406 C 21.988281 357.300781 21.089844 356.816406 20.238281 356.25 C 19.382812 355.679688 18.597656 355.03125 17.871094 354.308594 C 17.148438 353.582031 16.5 352.792969 15.929688 351.941406 C 15.359375 351.089844 14.878906 350.191406 14.488281 349.246094 C 14.09375 348.296875 13.796875 347.320312 13.597656 346.316406 C 13.394531 345.3125 13.292969 344.296875 13.292969 343.273438 L 13.292969 41.105469 C 13.292969 40.082031 13.394531 39.066406 13.597656 38.0625 C 13.796875 37.054688 14.09375 36.078125 14.488281 35.132812 C 14.878906 34.1875 15.359375 33.289062 15.929688 32.4375 C 16.5 31.582031 17.148438 30.796875 17.871094 30.070312 C 18.597656 29.347656 19.382812 28.699219 20.238281 28.128906 C 21.089844 27.558594 21.988281 27.078125 22.933594 26.6875 C 23.882812 26.292969 24.855469 25.996094 25.863281 25.796875 C 26.867188 25.59375 27.882812 25.492188 28.90625 25.492188 L 255.289062 25.492188 C 256.316406 25.492188 257.332031 25.59375 258.335938 25.796875 C 259.339844 25.996094 260.316406 26.292969 261.261719 26.6875 C 262.207031 27.078125 263.109375 27.558594 263.960938 28.128906 C 264.8125 28.699219 265.597656 29.347656 266.324219 30.070312 C 267.046875 30.796875 267.695312 31.585938 268.265625 32.4375 C 268.835938 33.289062 269.316406 34.1875 269.707031 35.132812 C 270.101562 36.082031 270.398438 37.054688 270.597656 38.0625 C 270.796875 39.066406 270.898438 40.082031 270.898438 41.105469 L 270.898438 237.074219 C 270.898438 238.097656 270.539062 238.96875 269.8125 239.695312 L 227.363281 282.144531 L 244.050781 298.847656 L 264.582031 278.3125 C 264.839844 278.054688 265.132812 277.835938 265.457031 277.664062 C 265.78125 277.492188 266.121094 277.367188 266.480469 277.296875 C 266.839844 277.226562 267.203125 277.207031 267.566406 277.246094 C 267.933594 277.28125 268.285156 277.367188 268.625 277.507812 C 268.960938 277.648438 269.273438 277.835938 269.558594 278.070312 C 269.839844 278.300781 270.082031 278.570312 270.285156 278.875 C 270.492188 279.179688 270.644531 279.507812 270.75 279.859375 C 270.859375 280.210938 270.910156 280.570312 270.910156 280.9375 L 270.910156 343.273438 C 270.910156 344.296875 270.808594 345.3125 270.609375 346.316406 C 270.40625 347.324219 270.109375 348.300781 269.71875 349.246094 C 269.324219 350.195312 268.84375 351.09375 268.273438 351.945312 C 267.703125 352.796875 267.054688 353.585938 266.332031 354.3125 C 265.605469 355.035156 264.816406 355.683594 263.964844 356.25 C 263.113281 356.820312 262.210938 357.300781 261.265625 357.695312 C 260.316406 358.085938 259.34375 358.382812 258.335938 358.582031 C 257.332031 358.785156 256.316406 358.882812 255.289062 358.886719 Z M 28.90625 32.902344 C 28.367188 32.902344 27.835938 32.953125 27.308594 33.058594 C 26.78125 33.164062 26.265625 33.320312 25.769531 33.527344 C 25.273438 33.734375 24.800781 33.984375 24.355469 34.285156 C 23.90625 34.582031 23.492188 34.921875 23.113281 35.304688 C 22.730469 35.683594 22.390625 36.097656 22.09375 36.546875 C 21.792969 36.992188 21.539062 37.464844 21.335938 37.960938 C 21.128906 38.460938 20.972656 38.972656 20.867188 39.5 C 20.761719 40.027344 20.710938 40.558594 20.707031 41.097656 L 20.707031 343.265625 C 20.710938 343.804688 20.761719 344.335938 20.867188 344.863281 C 20.972656 345.390625 21.128906 345.902344 21.335938 346.402344 C 21.539062 346.898438 21.792969 347.371094 22.09375 347.816406 C 22.390625 348.265625 22.730469 348.679688 23.113281 349.058594 C 23.492188 349.441406 23.90625 349.78125 24.355469 350.078125 C 24.800781 350.378906 25.273438 350.628906 25.769531 350.835938 C 26.265625 351.042969 26.78125 351.199219 27.308594 351.304688 C 27.835938 351.410156 28.367188 351.460938 28.90625 351.460938 L 255.289062 351.460938 C 255.828125 351.460938 256.363281 351.410156 256.890625 351.304688 C 257.417969 351.199219 257.929688 351.042969 258.425781 350.835938 C 258.921875 350.628906 259.394531 350.378906 259.84375 350.078125 C 260.289062 349.78125 260.703125 349.441406 261.082031 349.058594 C 261.464844 348.679688 261.804688 348.265625 262.101562 347.816406 C 262.402344 347.371094 262.652344 346.898438 262.859375 346.402344 C 263.066406 345.902344 263.222656 345.390625 263.328125 344.863281 C 263.429688 344.335938 263.484375 343.804688 263.484375 343.265625 L 263.484375 289.875 L 246.660156 306.710938 C 245.9375 307.4375 245.0625 307.796875 244.039062 307.796875 C 243.011719 307.800781 242.136719 307.4375 241.414062 306.710938 L 219.496094 284.761719 C 219.152344 284.414062 218.882812 284.015625 218.695312 283.5625 C 218.507812 283.109375 218.414062 282.636719 218.414062 282.144531 C 218.414062 281.652344 218.507812 281.179688 218.695312 280.726562 C 218.882812 280.273438 219.152344 279.871094 219.496094 279.523438 L 263.484375 235.539062 L 263.484375 41.097656 C 263.484375 40.558594 263.429688 40.027344 263.328125 39.5 C 263.222656 38.972656 263.066406 38.460938 262.859375 37.960938 C 262.652344 37.464844 262.402344 36.992188 262.101562 36.546875 C 261.804688 36.097656 261.464844 35.683594 261.082031 35.304688 C 260.703125 34.921875 260.289062 34.582031 259.84375 34.285156 C 259.394531 33.984375 258.921875 33.734375 258.425781 33.527344 C 257.929688 33.320312 257.417969 33.164062 256.890625 33.058594 C 256.363281 32.953125 255.828125 32.902344 255.289062 32.902344 Z M 267.191406 237.074219 Z M 267.191406 237.074219 " fill-opacity="1" fill-rule="nonzero"/></g><path fill="#046147" d="M 58.390625 86.0625 C 57.363281 86.0625 56.492188 85.699219 55.765625 84.976562 L 49.160156 78.363281 C 48.804688 78.015625 48.527344 77.617188 48.328125 77.160156 C 48.132812 76.703125 48.03125 76.226562 48.027344 75.726562 C 48.023438 75.230469 48.117188 74.753906 48.304688 74.292969 C 48.492188 73.832031 48.761719 73.425781 49.113281 73.074219 C 49.464844 72.722656 49.871094 72.453125 50.332031 72.265625 C 50.792969 72.074219 51.269531 71.984375 51.769531 71.988281 C 52.265625 71.992188 52.742188 72.09375 53.199219 72.289062 C 53.65625 72.484375 54.058594 72.761719 54.402344 73.121094 L 58.390625 77.105469 L 68.535156 66.960938 C 68.886719 66.625 69.285156 66.367188 69.738281 66.183594 C 70.191406 66.003906 70.660156 65.917969 71.144531 65.921875 C 71.628906 65.925781 72.097656 66.023438 72.546875 66.210938 C 72.992188 66.398438 73.390625 66.664062 73.734375 67.007812 C 74.078125 67.351562 74.34375 67.746094 74.53125 68.195312 C 74.71875 68.644531 74.816406 69.109375 74.820312 69.597656 C 74.824219 70.082031 74.734375 70.550781 74.554688 71.003906 C 74.375 71.453125 74.117188 71.855469 73.777344 72.203125 L 61.011719 84.976562 C 60.285156 85.699219 59.414062 86.0625 58.390625 86.0625 Z M 58.390625 86.0625 " fill-opacity="1" fill-rule="nonzero"/><path fill="#046147" d="M 77.78125 99.175781 L 45.179688 99.175781 C 44.722656 99.175781 44.273438 99.132812 43.828125 99.042969 C 43.382812 98.953125 42.949219 98.824219 42.53125 98.648438 C 42.113281 98.476562 41.710938 98.261719 41.335938 98.011719 C 40.957031 97.757812 40.609375 97.472656 40.285156 97.148438 C 39.964844 96.828125 39.679688 96.480469 39.425781 96.101562 C 39.171875 95.722656 38.960938 95.324219 38.785156 94.90625 C 38.613281 94.484375 38.480469 94.054688 38.390625 93.609375 C 38.300781 93.164062 38.257812 92.714844 38.257812 92.257812 L 38.257812 59.679688 C 38.257812 59.226562 38.304688 58.777344 38.394531 58.332031 C 38.484375 57.886719 38.617188 57.457031 38.789062 57.039062 C 38.964844 56.621094 39.179688 56.222656 39.429688 55.84375 C 39.683594 55.46875 39.96875 55.121094 40.292969 54.800781 C 40.613281 54.480469 40.960938 54.195312 41.339844 53.941406 C 41.71875 53.691406 42.117188 53.476562 42.535156 53.304688 C 42.953125 53.132812 43.386719 53 43.832031 52.914062 C 44.277344 52.824219 44.726562 52.78125 45.179688 52.78125 L 77.804688 52.78125 C 78.257812 52.78125 78.707031 52.824219 79.152344 52.914062 C 79.597656 53.003906 80.03125 53.136719 80.449219 53.308594 C 80.871094 53.484375 81.269531 53.695312 81.644531 53.949219 C 82.023438 54.199219 82.371094 54.488281 82.691406 54.808594 C 83.011719 55.128906 83.300781 55.476562 83.550781 55.855469 C 83.804688 56.234375 84.019531 56.628906 84.191406 57.050781 C 84.367188 57.46875 84.496094 57.902344 84.585938 58.347656 C 84.675781 58.792969 84.71875 59.242188 84.71875 59.695312 L 84.71875 92.273438 C 84.71875 92.726562 84.671875 93.179688 84.582031 93.625 C 84.492188 94.070312 84.359375 94.5 84.183594 94.921875 C 84.011719 95.339844 83.796875 95.738281 83.542969 96.113281 C 83.289062 96.492188 83 96.839844 82.679688 97.160156 C 82.355469 97.480469 82.003906 97.769531 81.628906 98.019531 C 81.25 98.269531 80.847656 98.484375 80.429688 98.65625 C 80.007812 98.828125 79.574219 98.960938 79.128906 99.046875 C 78.683594 99.132812 78.234375 99.179688 77.78125 99.175781 Z M 45.664062 91.761719 L 77.277344 91.761719 L 77.277344 60.195312 L 45.664062 60.195312 Z M 45.664062 91.761719 " fill-opacity="1" fill-rule="nonzero"/><path fill="#046147" d="M 242.234375 69.875 L 106.058594 69.875 C 105.566406 69.875 105.09375 69.78125 104.636719 69.59375 C 104.183594 69.40625 103.78125 69.136719 103.433594 68.789062 C 103.085938 68.441406 102.820312 68.042969 102.632812 67.585938 C 102.445312 67.132812 102.347656 66.660156 102.347656 66.167969 C 102.347656 65.675781 102.445312 65.203125 102.632812 64.75 C 102.820312 64.296875 103.085938 63.894531 103.433594 63.546875 C 103.78125 63.199219 104.183594 62.929688 104.636719 62.742188 C 105.09375 62.554688 105.566406 62.460938 106.058594 62.460938 L 242.234375 62.460938 C 242.726562 62.460938 243.199219 62.554688 243.65625 62.742188 C 244.109375 62.929688 244.511719 63.199219 244.859375 63.546875 C 245.207031 63.894531 245.472656 64.296875 245.660156 64.75 C 245.851562 65.203125 245.945312 65.675781 245.945312 66.167969 C 245.945312 66.660156 245.851562 67.132812 245.660156 67.585938 C 245.472656 68.042969 245.207031 68.441406 244.859375 68.789062 C 244.511719 69.136719 244.109375 69.40625 243.65625 69.59375 C 243.199219 69.78125 242.726562 69.875 242.234375 69.875 Z M 242.234375 69.875 " fill-opacity="1" fill-rule="nonzero"/><path fill="#046147" d="M 242.234375 89.484375 L 106.058594 89.484375 C 105.566406 89.484375 105.09375 89.390625 104.636719 89.203125 C 104.183594 89.015625 103.78125 88.746094 103.433594 88.398438 C 103.085938 88.050781 102.820312 87.652344 102.632812 87.195312 C 102.445312 86.742188 102.347656 86.269531 102.347656 85.777344 C 102.347656 85.285156 102.445312 84.8125 102.632812 84.359375 C 102.820312 83.90625 103.085938 83.503906 103.433594 83.15625 C 103.78125 82.808594 104.183594 82.539062 104.636719 82.351562 C 105.09375 82.164062 105.566406 82.070312 106.058594 82.070312 L 242.234375 82.070312 C 242.726562 82.070312 243.199219 82.164062 243.65625 82.351562 C 244.109375 82.539062 244.511719 82.808594 244.859375 83.15625 C 245.207031 83.503906 245.472656 83.90625 245.660156 84.359375 C 245.851562 84.8125 245.945312 85.285156 245.945312 85.777344 C 245.945312 86.269531 245.851562 86.742188 245.660156 87.195312 C 245.472656 87.652344 245.207031 88.050781 244.859375 88.398438 C 244.511719 88.746094 244.109375 89.015625 243.65625 89.203125 C 243.199219 89.390625 242.726562 89.484375 242.234375 89.484375 Z M 242.234375 89.484375 " fill-opacity="1" fill-rule="nonzero"/><path fill="#046147" d="M 58.390625 161.78125 C 57.363281 161.78125 56.492188 161.421875 55.765625 160.695312 L 49.160156 154.089844 C 48.804688 153.746094 48.527344 153.34375 48.328125 152.886719 C 48.132812 152.429688 48.035156 151.953125 48.027344 151.457031 C 48.023438 150.957031 48.117188 150.480469 48.304688 150.019531 C 48.492188 149.558594 48.761719 149.152344 49.113281 148.800781 C 49.464844 148.449219 49.871094 148.179688 50.332031 147.992188 C 50.792969 147.804688 51.269531 147.710938 51.769531 147.714844 C 52.265625 147.71875 52.742188 147.820312 53.199219 148.015625 C 53.65625 148.210938 54.058594 148.488281 54.402344 148.847656 L 58.390625 152.832031 L 68.535156 142.675781 C 68.882812 142.328125 69.285156 142.058594 69.738281 141.871094 C 70.195312 141.683594 70.667969 141.589844 71.160156 141.589844 C 71.652344 141.589844 72.125 141.683594 72.578125 141.871094 C 73.03125 142.058594 73.433594 142.328125 73.78125 142.675781 C 74.128906 143.023438 74.394531 143.425781 74.585938 143.878906 C 74.773438 144.332031 74.867188 144.808594 74.867188 145.296875 C 74.867188 145.789062 74.773438 146.261719 74.582031 146.71875 C 74.394531 147.171875 74.125 147.574219 73.777344 147.921875 L 61.011719 160.691406 C 60.285156 161.417969 59.414062 161.78125 58.390625 161.78125 Z M 58.390625 161.78125 " fill-opacity="1" fill-rule="nonzero"/><path fill="#046147" d="M 77.78125 174.890625 L 45.179688 174.890625 C 44.722656 174.890625 44.273438 174.84375 43.828125 174.757812 C 43.382812 174.667969 42.949219 174.535156 42.53125 174.363281 C 42.113281 174.1875 41.714844 173.976562 41.335938 173.722656 C 40.957031 173.472656 40.609375 173.183594 40.285156 172.863281 C 39.964844 172.542969 39.679688 172.195312 39.425781 171.816406 C 39.171875 171.4375 38.960938 171.039062 38.785156 170.621094 C 38.613281 170.203125 38.480469 169.769531 38.390625 169.324219 C 38.300781 168.878906 38.257812 168.429688 38.257812 167.976562 L 38.257812 135.394531 C 38.257812 134.941406 38.300781 134.492188 38.390625 134.046875 C 38.480469 133.601562 38.613281 133.167969 38.785156 132.75 C 38.960938 132.328125 39.171875 131.929688 39.425781 131.554688 C 39.679688 131.175781 39.964844 130.828125 40.285156 130.503906 C 40.609375 130.183594 40.957031 129.898438 41.335938 129.644531 C 41.710938 129.390625 42.113281 129.179688 42.53125 129.003906 C 42.949219 128.832031 43.382812 128.699219 43.828125 128.613281 C 44.273438 128.523438 44.722656 128.476562 45.179688 128.476562 L 77.804688 128.476562 C 78.257812 128.480469 78.707031 128.523438 79.152344 128.613281 C 79.597656 128.703125 80.03125 128.832031 80.449219 129.007812 C 80.871094 129.183594 81.269531 129.394531 81.644531 129.648438 C 82.023438 129.898438 82.371094 130.1875 82.691406 130.507812 C 83.015625 130.828125 83.300781 131.179688 83.550781 131.554688 C 83.804688 131.933594 84.019531 132.332031 84.191406 132.75 C 84.367188 133.171875 84.496094 133.601562 84.585938 134.046875 C 84.675781 134.492188 84.71875 134.941406 84.71875 135.394531 L 84.71875 167.976562 C 84.71875 168.429688 84.675781 168.878906 84.585938 169.328125 C 84.496094 169.773438 84.363281 170.207031 84.1875 170.625 C 84.015625 171.046875 83.800781 171.445312 83.546875 171.824219 C 83.292969 172.199219 83.003906 172.550781 82.683594 172.871094 C 82.359375 173.191406 82.011719 173.480469 81.632812 173.730469 C 81.253906 173.984375 80.851562 174.195312 80.433594 174.367188 C 80.011719 174.542969 79.578125 174.671875 79.132812 174.757812 C 78.683594 174.847656 78.234375 174.890625 77.78125 174.890625 Z M 45.664062 167.472656 L 77.277344 167.472656 L 77.277344 135.894531 L 45.664062 135.894531 Z M 45.664062 167.472656 " fill-opacity="1" fill-rule="nonzero"/><path fill="#046147" d="M 242.234375 145.59375 L 106.058594 145.59375 C 105.566406 145.59375 105.09375 145.496094 104.636719 145.308594 C 104.183594 145.121094 103.78125 144.855469 103.433594 144.507812 C 103.085938 144.160156 102.820312 143.757812 102.632812 143.304688 C 102.445312 142.847656 102.347656 142.375 102.347656 141.882812 C 102.347656 141.394531 102.445312 140.917969 102.632812 140.464844 C 102.820312 140.011719 103.085938 139.609375 103.433594 139.261719 C 103.78125 138.914062 104.183594 138.648438 104.636719 138.460938 C 105.09375 138.269531 105.566406 138.175781 106.058594 138.175781 L 242.234375 138.175781 C 242.726562 138.175781 243.199219 138.269531 243.65625 138.460938 C 244.109375 138.648438 244.511719 138.914062 244.859375 139.261719 C 245.207031 139.609375 245.472656 140.011719 245.660156 140.464844 C 245.851562 140.917969 245.945312 141.394531 245.945312 141.882812 C 245.945312 142.375 245.851562 142.847656 245.660156 143.304688 C 245.472656 143.757812 245.207031 144.160156 244.859375 144.507812 C 244.511719 144.855469 244.109375 145.121094 243.65625 145.308594 C 243.199219 145.496094 242.726562 145.59375 242.234375 145.59375 Z M 242.234375 145.59375 " fill-opacity="1" fill-rule="nonzero"/><path fill="#046147" d="M 242.234375 165.195312 L 106.058594 165.195312 C 105.566406 165.195312 105.09375 165.101562 104.636719 164.910156 C 104.183594 164.722656 103.78125 164.457031 103.433594 164.109375 C 103.085938 163.761719 102.820312 163.359375 102.632812 162.90625 C 102.445312 162.449219 102.347656 161.976562 102.347656 161.488281 C 102.347656 160.996094 102.445312 160.523438 102.632812 160.066406 C 102.820312 159.613281 103.085938 159.210938 103.433594 158.863281 C 103.78125 158.515625 104.183594 158.25 104.636719 158.0625 C 105.09375 157.871094 105.566406 157.777344 106.058594 157.777344 L 242.234375 157.777344 C 242.726562 157.777344 243.199219 157.871094 243.65625 158.0625 C 244.109375 158.25 244.511719 158.515625 244.859375 158.863281 C 245.207031 159.210938 245.472656 159.613281 245.660156 160.066406 C 245.851562 160.523438 245.945312 160.996094 245.945312 161.488281 C 245.945312 161.976562 245.851562 162.449219 245.660156 162.90625 C 245.472656 163.359375 245.207031 163.761719 244.859375 164.109375 C 244.511719 164.457031 244.109375 164.722656 243.65625 164.910156 C 243.199219 165.101562 242.726562 165.195312 242.234375 165.195312 Z M 242.234375 165.195312 " fill-opacity="1" fill-rule="nonzero"/><path fill="#046147" d="M 58.390625 237.496094 C 57.363281 237.496094 56.492188 237.132812 55.765625 236.410156 L 49.160156 229.800781 C 48.804688 229.457031 48.527344 229.054688 48.328125 228.597656 C 48.132812 228.140625 48.035156 227.664062 48.027344 227.167969 C 48.023438 226.671875 48.117188 226.191406 48.304688 225.730469 C 48.492188 225.269531 48.761719 224.867188 49.113281 224.515625 C 49.464844 224.164062 49.871094 223.890625 50.332031 223.703125 C 50.792969 223.515625 51.269531 223.421875 51.769531 223.429688 C 52.265625 223.433594 52.742188 223.53125 53.199219 223.730469 C 53.65625 223.925781 54.058594 224.203125 54.402344 224.558594 L 58.390625 228.546875 L 68.535156 218.390625 C 68.886719 218.050781 69.285156 217.792969 69.738281 217.613281 C 70.191406 217.433594 70.660156 217.34375 71.144531 217.351562 C 71.628906 217.355469 72.097656 217.449219 72.546875 217.636719 C 72.992188 217.824219 73.390625 218.089844 73.734375 218.433594 C 74.078125 218.777344 74.34375 219.175781 74.53125 219.625 C 74.71875 220.070312 74.816406 220.539062 74.820312 221.023438 C 74.824219 221.511719 74.734375 221.980469 74.554688 222.429688 C 74.375 222.882812 74.117188 223.285156 73.777344 223.632812 L 61.011719 236.410156 C 60.285156 237.132812 59.414062 237.496094 58.390625 237.496094 Z M 58.390625 237.496094 " fill-opacity="1" fill-rule="nonzero"/><path fill="#046147" d="M 77.78125 250.605469 L 45.179688 250.605469 C 44.722656 250.605469 44.273438 250.5625 43.828125 250.472656 C 43.382812 250.382812 42.953125 250.253906 42.53125 250.078125 C 42.113281 249.90625 41.714844 249.691406 41.335938 249.4375 C 40.957031 249.1875 40.609375 248.902344 40.289062 248.578125 C 39.964844 248.257812 39.679688 247.910156 39.425781 247.53125 C 39.175781 247.15625 38.960938 246.757812 38.785156 246.335938 C 38.613281 245.917969 38.480469 245.484375 38.390625 245.039062 C 38.300781 244.59375 38.257812 244.144531 38.257812 243.691406 L 38.257812 211.113281 C 38.257812 210.65625 38.300781 210.207031 38.390625 209.761719 C 38.480469 209.316406 38.613281 208.882812 38.785156 208.464844 C 38.960938 208.046875 39.171875 207.648438 39.425781 207.269531 C 39.679688 206.890625 39.964844 206.542969 40.285156 206.222656 C 40.609375 205.898438 40.957031 205.613281 41.335938 205.359375 C 41.710938 205.109375 42.113281 204.894531 42.53125 204.722656 C 42.949219 204.546875 43.382812 204.417969 43.828125 204.328125 C 44.273438 204.238281 44.722656 204.195312 45.179688 204.195312 L 77.804688 204.195312 C 78.257812 204.195312 78.707031 204.238281 79.152344 204.328125 C 79.597656 204.417969 80.03125 204.550781 80.449219 204.722656 C 80.871094 204.898438 81.269531 205.109375 81.644531 205.363281 C 82.023438 205.617188 82.371094 205.902344 82.691406 206.222656 C 83.015625 206.546875 83.300781 206.894531 83.550781 207.273438 C 83.804688 207.648438 84.019531 208.046875 84.191406 208.46875 C 84.367188 208.886719 84.496094 209.320312 84.585938 209.761719 C 84.675781 210.207031 84.71875 210.660156 84.71875 211.113281 L 84.71875 243.691406 C 84.71875 244.144531 84.675781 244.597656 84.585938 245.042969 C 84.496094 245.488281 84.363281 245.921875 84.1875 246.339844 C 84.011719 246.761719 83.800781 247.160156 83.546875 247.539062 C 83.292969 247.914062 83.003906 248.265625 82.683594 248.585938 C 82.359375 248.90625 82.007812 249.195312 81.628906 249.445312 C 81.253906 249.699219 80.851562 249.910156 80.433594 250.082031 C 80.011719 250.257812 79.578125 250.386719 79.132812 250.476562 C 78.683594 250.5625 78.234375 250.605469 77.78125 250.605469 Z M 45.664062 243.191406 L 77.277344 243.191406 L 77.277344 211.609375 L 45.664062 211.609375 Z M 45.664062 243.191406 " fill-opacity="1" fill-rule="nonzero"/><path fill="#046147" d="M 242.234375 221.304688 L 106.058594 221.304688 C 105.566406 221.304688 105.09375 221.210938 104.636719 221.023438 C 104.183594 220.835938 103.78125 220.566406 103.433594 220.21875 C 103.085938 219.871094 102.820312 219.46875 102.632812 219.015625 C 102.445312 218.5625 102.347656 218.089844 102.347656 217.597656 C 102.347656 217.105469 102.445312 216.632812 102.632812 216.179688 C 102.820312 215.722656 103.085938 215.324219 103.433594 214.976562 C 103.78125 214.628906 104.183594 214.359375 104.636719 214.171875 C 105.09375 213.984375 105.566406 213.890625 106.058594 213.890625 L 242.234375 213.890625 C 242.726562 213.890625 243.199219 213.984375 243.65625 214.171875 C 244.109375 214.359375 244.511719 214.628906 244.859375 214.976562 C 245.207031 215.324219 245.472656 215.722656 245.660156 216.179688 C 245.851562 216.632812 245.945312 217.105469 245.945312 217.597656 C 245.945312 218.089844 245.851562 218.5625 245.660156 219.015625 C 245.472656 219.46875 245.207031 219.871094 244.859375 220.21875 C 244.511719 220.566406 244.109375 220.835938 243.65625 221.023438 C 243.199219 221.210938 242.726562 221.304688 242.234375 221.304688 Z M 242.234375 221.304688 " fill-opacity="1" fill-rule="nonzero"/><path fill="#046147" d="M 242.234375 240.910156 L 106.058594 240.910156 C 105.566406 240.910156 105.09375 240.816406 104.636719 240.628906 C 104.183594 240.441406 103.78125 240.171875 103.433594 239.824219 C 103.085938 239.476562 102.820312 239.074219 102.632812 238.621094 C 102.445312 238.167969 102.347656 237.695312 102.347656 237.203125 C 102.347656 236.710938 102.445312 236.238281 102.632812 235.785156 C 102.820312 235.328125 103.085938 234.929688 103.433594 234.582031 C 103.78125 234.234375 104.183594 233.964844 104.636719 233.777344 C 105.09375 233.589844 105.566406 233.496094 106.058594 233.496094 L 242.234375 233.496094 C 242.726562 233.496094 243.199219 233.589844 243.65625 233.777344 C 244.109375 233.964844 244.511719 234.234375 244.859375 234.582031 C 245.207031 234.929688 245.472656 235.328125 245.660156 235.785156 C 245.851562 236.238281 245.945312 236.710938 245.945312 237.203125 C 245.945312 237.695312 245.851562 238.167969 245.660156 238.621094 C 245.472656 239.074219 245.207031 239.476562 244.859375 239.824219 C 244.511719 240.171875 244.109375 240.441406 243.65625 240.628906 C 243.199219 240.816406 242.726562 240.910156 242.234375 240.910156 Z M 242.234375 240.910156 " fill-opacity="1" fill-rule="nonzero"/><path fill="#046147" d="M 58.390625 313.210938 C 57.363281 313.210938 56.492188 312.847656 55.765625 312.125 L 49.160156 305.519531 C 48.804688 305.171875 48.527344 304.773438 48.328125 304.316406 C 48.132812 303.859375 48.035156 303.382812 48.027344 302.882812 C 48.023438 302.386719 48.117188 301.90625 48.304688 301.449219 C 48.492188 300.988281 48.761719 300.582031 49.113281 300.230469 C 49.464844 299.878906 49.871094 299.609375 50.332031 299.421875 C 50.792969 299.230469 51.269531 299.140625 51.769531 299.144531 C 52.265625 299.148438 52.742188 299.25 53.199219 299.445312 C 53.65625 299.640625 54.058594 299.917969 54.402344 300.277344 L 58.390625 304.261719 L 68.535156 294.105469 C 68.886719 293.785156 69.289062 293.542969 69.734375 293.375 C 70.179688 293.210938 70.640625 293.132812 71.117188 293.144531 C 71.589844 293.152344 72.046875 293.253906 72.484375 293.4375 C 72.921875 293.625 73.3125 293.886719 73.648438 294.222656 C 73.984375 294.558594 74.246094 294.945312 74.4375 295.382812 C 74.625 295.820312 74.726562 296.277344 74.738281 296.75 C 74.75 297.226562 74.671875 297.6875 74.507812 298.132812 C 74.34375 298.582031 74.101562 298.980469 73.78125 299.335938 L 61.011719 312.125 C 60.285156 312.847656 59.414062 313.210938 58.390625 313.210938 Z M 58.390625 313.210938 " fill-opacity="1" fill-rule="nonzero"/><path fill="#046147" d="M 77.78125 326.320312 L 45.179688 326.320312 C 44.722656 326.320312 44.273438 326.277344 43.828125 326.1875 C 43.382812 326.097656 42.949219 325.96875 42.53125 325.792969 C 42.113281 325.621094 41.710938 325.40625 41.335938 325.15625 C 40.957031 324.902344 40.609375 324.617188 40.285156 324.292969 C 39.964844 323.972656 39.679688 323.625 39.425781 323.246094 C 39.171875 322.867188 38.960938 322.46875 38.785156 322.050781 C 38.613281 321.632812 38.480469 321.199219 38.390625 320.753906 C 38.300781 320.308594 38.257812 319.859375 38.257812 319.402344 L 38.257812 286.828125 C 38.257812 286.375 38.300781 285.925781 38.390625 285.480469 C 38.480469 285.035156 38.613281 284.601562 38.785156 284.179688 C 38.960938 283.761719 39.171875 283.363281 39.425781 282.984375 C 39.679688 282.609375 39.964844 282.257812 40.285156 281.9375 C 40.609375 281.617188 40.957031 281.328125 41.335938 281.078125 C 41.710938 280.824219 42.113281 280.613281 42.53125 280.4375 C 42.949219 280.265625 43.382812 280.132812 43.828125 280.042969 C 44.273438 279.953125 44.722656 279.910156 45.179688 279.910156 L 77.804688 279.910156 C 78.257812 279.910156 78.707031 279.957031 79.152344 280.042969 C 79.597656 280.132812 80.03125 280.265625 80.449219 280.441406 C 80.871094 280.613281 81.269531 280.828125 81.644531 281.078125 C 82.023438 281.332031 82.371094 281.617188 82.691406 281.941406 C 83.015625 282.261719 83.300781 282.609375 83.550781 282.988281 C 83.804688 283.363281 84.019531 283.761719 84.191406 284.183594 C 84.367188 284.601562 84.496094 285.035156 84.585938 285.480469 C 84.675781 285.925781 84.71875 286.375 84.71875 286.828125 L 84.71875 319.402344 C 84.71875 319.859375 84.675781 320.308594 84.585938 320.753906 C 84.496094 321.203125 84.363281 321.632812 84.1875 322.054688 C 84.015625 322.476562 83.800781 322.875 83.546875 323.253906 C 83.292969 323.628906 83.007812 323.980469 82.683594 324.300781 C 82.359375 324.621094 82.011719 324.910156 81.632812 325.160156 C 81.253906 325.414062 80.851562 325.625 80.433594 325.800781 C 80.011719 325.972656 79.578125 326.101562 79.132812 326.191406 C 78.683594 326.277344 78.234375 326.324219 77.78125 326.320312 Z M 45.664062 318.90625 L 77.277344 318.90625 L 77.277344 287.324219 L 45.664062 287.324219 Z M 45.664062 318.90625 " fill-opacity="1" fill-rule="nonzero"/><path fill="#046147" d="M 199.757812 297.019531 L 106.058594 297.019531 C 105.566406 297.019531 105.09375 296.925781 104.636719 296.738281 C 104.183594 296.550781 103.78125 296.28125 103.433594 295.933594 C 103.085938 295.585938 102.820312 295.1875 102.632812 294.730469 C 102.445312 294.277344 102.347656 293.804688 102.347656 293.3125 C 102.347656 292.820312 102.445312 292.347656 102.632812 291.894531 C 102.820312 291.441406 103.085938 291.039062 103.433594 290.691406 C 103.78125 290.34375 104.183594 290.074219 104.636719 289.886719 C 105.09375 289.699219 105.566406 289.605469 106.058594 289.605469 L 199.757812 289.605469 C 200.25 289.605469 200.722656 289.699219 201.175781 289.886719 C 201.632812 290.074219 202.03125 290.34375 202.378906 290.691406 C 202.726562 291.039062 202.996094 291.441406 203.183594 291.894531 C 203.371094 292.347656 203.464844 292.820312 203.464844 293.3125 C 203.464844 293.804688 203.371094 294.277344 203.183594 294.730469 C 202.996094 295.1875 202.726562 295.585938 202.378906 295.933594 C 202.03125 296.28125 201.632812 296.550781 201.175781 296.738281 C 200.722656 296.925781 200.25 297.019531 199.757812 297.019531 Z M 199.757812 297.019531 " fill-opacity="1" fill-rule="nonzero"/><path fill="#046147" d="M 190.460938 316.621094 L 106.058594 316.621094 C 105.566406 316.621094 105.09375 316.527344 104.636719 316.339844 C 104.183594 316.152344 103.78125 315.882812 103.433594 315.535156 C 103.085938 315.1875 102.820312 314.789062 102.632812 314.332031 C 102.445312 313.878906 102.347656 313.40625 102.347656 312.914062 C 102.347656 312.421875 102.445312 311.949219 102.632812 311.496094 C 102.820312 311.042969 103.085938 310.640625 103.433594 310.292969 C 103.78125 309.945312 104.183594 309.675781 104.636719 309.488281 C 105.09375 309.300781 105.566406 309.207031 106.058594 309.207031 L 190.460938 309.207031 C 190.953125 309.207031 191.425781 309.300781 191.878906 309.488281 C 192.332031 309.675781 192.734375 309.945312 193.082031 310.292969 C 193.429688 310.640625 193.695312 311.042969 193.886719 311.496094 C 194.074219 311.949219 194.167969 312.421875 194.167969 312.914062 C 194.167969 313.40625 194.074219 313.878906 193.886719 314.332031 C 193.695312 314.789062 193.429688 315.1875 193.082031 315.535156 C 192.734375 315.882812 192.332031 316.152344 191.878906 316.339844 C 191.425781 316.527344 190.953125 316.621094 190.460938 316.621094 Z M 190.460938 316.621094 " fill-opacity="1" fill-rule="nonzero"/><path fill="#046147" d="M 244.039062 307.796875 C 243.011719 307.800781 242.136719 307.4375 241.414062 306.710938 L 219.496094 284.761719 C 219.152344 284.414062 218.882812 284.015625 218.695312 283.5625 C 218.507812 283.109375 218.414062 282.636719 218.414062 282.144531 C 218.414062 281.652344 218.507812 281.179688 218.695312 280.726562 C 218.882812 280.273438 219.152344 279.871094 219.496094 279.523438 L 336.425781 162.59375 C 337.316406 161.699219 338.289062 160.902344 339.335938 160.199219 C 340.386719 159.496094 341.492188 158.902344 342.660156 158.417969 C 343.824219 157.933594 345.027344 157.570312 346.265625 157.324219 C 347.503906 157.082031 348.757812 156.960938 350.019531 156.964844 L 350.046875 156.964844 C 350.992188 156.964844 351.929688 157.035156 352.863281 157.175781 C 353.796875 157.316406 354.714844 157.523438 355.617188 157.800781 C 356.519531 158.074219 357.394531 158.417969 358.246094 158.820312 C 359.097656 159.226562 359.917969 159.691406 360.699219 160.214844 C 361.484375 160.742188 362.226562 161.320312 362.921875 161.957031 C 363.621094 162.589844 364.269531 163.273438 364.867188 164.003906 C 365.464844 164.734375 366.003906 165.503906 366.488281 166.3125 C 366.972656 167.121094 367.394531 167.964844 367.753906 168.835938 C 368.113281 169.707031 368.410156 170.601562 368.636719 171.515625 C 368.867188 172.433594 369.027344 173.359375 369.117188 174.296875 C 369.210938 175.238281 369.230469 176.175781 369.183594 177.121094 C 369.136719 178.0625 369.023438 178.996094 368.835938 179.921875 C 368.652344 180.847656 368.402344 181.753906 368.082031 182.640625 C 367.765625 183.527344 367.382812 184.386719 366.9375 185.21875 C 366.496094 186.050781 365.992188 186.847656 365.429688 187.605469 C 364.867188 188.363281 364.253906 189.074219 363.585938 189.742188 L 246.660156 306.710938 C 245.9375 307.4375 245.0625 307.796875 244.039062 307.796875 Z M 227.355469 282.144531 L 244.039062 298.847656 L 358.34375 184.511719 C 359.164062 183.6875 359.851562 182.761719 360.402344 181.734375 C 360.949219 180.707031 361.339844 179.625 361.566406 178.484375 C 361.796875 177.339844 361.851562 176.191406 361.738281 175.03125 C 361.625 173.871094 361.347656 172.753906 360.902344 171.679688 C 360.460938 170.601562 359.867188 169.613281 359.132812 168.710938 C 358.394531 167.8125 357.542969 167.035156 356.574219 166.386719 C 355.609375 165.738281 354.566406 165.246094 353.453125 164.90625 C 352.339844 164.5625 351.203125 164.390625 350.039062 164.390625 C 348.472656 164.382812 346.964844 164.679688 345.519531 165.277344 C 344.070312 165.875 342.792969 166.726562 341.6875 167.835938 Z M 227.355469 282.144531 " fill-opacity="1" fill-rule="nonzero"/><path fill="#046147" d="M 353.648438 198.183594 C 352.625 198.1875 351.75 197.824219 351.027344 197.097656 L 329.097656 175.171875 C 328.75 174.824219 328.480469 174.421875 328.292969 173.96875 C 328.105469 173.515625 328.011719 173.042969 328.011719 172.550781 C 328.011719 172.058594 328.105469 171.585938 328.292969 171.132812 C 328.480469 170.675781 328.75 170.277344 329.097656 169.929688 L 336.4375 162.585938 C 336.882812 162.144531 337.347656 161.71875 337.835938 161.320312 C 338.320312 160.921875 338.828125 160.546875 339.347656 160.199219 C 339.871094 159.847656 340.410156 159.523438 340.964844 159.230469 C 341.523438 158.933594 342.089844 158.664062 342.671875 158.421875 C 343.253906 158.179688 343.84375 157.96875 344.445312 157.785156 C 345.046875 157.605469 345.65625 157.453125 346.273438 157.328125 C 346.890625 157.207031 347.515625 157.113281 348.140625 157.050781 C 348.765625 156.992188 349.394531 156.960938 350.023438 156.960938 C 350.652344 156.960938 351.28125 156.988281 351.90625 157.050781 C 352.53125 157.113281 353.15625 157.207031 353.773438 157.328125 C 354.390625 157.449219 355 157.605469 355.601562 157.785156 C 356.203125 157.96875 356.792969 158.179688 357.375 158.421875 C 357.957031 158.664062 358.523438 158.929688 359.082031 159.226562 C 359.636719 159.523438 360.175781 159.847656 360.699219 160.195312 C 361.222656 160.546875 361.726562 160.921875 362.210938 161.320312 C 362.699219 161.71875 363.164062 162.140625 363.609375 162.585938 C 364.054688 163.03125 364.476562 163.496094 364.875 163.984375 C 365.273438 164.46875 365.648438 164.972656 366 165.496094 C 366.347656 166.019531 366.671875 166.558594 366.96875 167.113281 C 367.265625 167.667969 367.535156 168.238281 367.773438 168.820312 C 368.015625 169.398438 368.226562 169.992188 368.410156 170.59375 C 368.59375 171.195312 368.746094 171.804688 368.867188 172.421875 C 368.992188 173.039062 369.082031 173.660156 369.144531 174.289062 C 369.207031 174.914062 369.238281 175.542969 369.238281 176.171875 C 369.238281 176.800781 369.207031 177.429688 369.144531 178.054688 C 369.082031 178.679688 368.992188 179.300781 368.867188 179.917969 C 368.746094 180.535156 368.59375 181.144531 368.410156 181.75 C 368.226562 182.351562 368.015625 182.941406 367.777344 183.523438 C 367.535156 184.105469 367.265625 184.671875 366.96875 185.226562 C 366.671875 185.78125 366.351562 186.320312 366 186.84375 C 365.652344 187.367188 365.277344 187.875 364.878906 188.359375 C 364.476562 188.847656 364.054688 189.3125 363.609375 189.757812 L 356.269531 197.097656 C 355.546875 197.824219 354.671875 198.1875 353.648438 198.183594 Z M 336.964844 172.535156 L 353.648438 189.21875 L 358.367188 184.5 C 358.914062 183.949219 359.398438 183.355469 359.824219 182.710938 C 360.253906 182.066406 360.613281 181.386719 360.90625 180.671875 C 361.199219 179.957031 361.421875 179.222656 361.570312 178.464844 C 361.71875 177.703125 361.792969 176.9375 361.792969 176.167969 C 361.792969 175.394531 361.714844 174.628906 361.5625 173.871094 C 361.410156 173.113281 361.1875 172.378906 360.890625 171.664062 C 360.59375 170.949219 360.230469 170.273438 359.800781 169.628906 C 359.371094 168.988281 358.882812 168.394531 358.335938 167.847656 C 357.789062 167.300781 357.195312 166.8125 356.554688 166.382812 C 355.910156 165.953125 355.234375 165.589844 354.519531 165.292969 C 353.804688 164.996094 353.070312 164.773438 352.3125 164.621094 C 351.554688 164.46875 350.789062 164.394531 350.015625 164.390625 C 349.246094 164.390625 348.480469 164.464844 347.722656 164.613281 C 346.960938 164.761719 346.226562 164.984375 345.511719 165.277344 C 344.796875 165.570312 344.117188 165.929688 343.472656 166.359375 C 342.828125 166.785156 342.234375 167.269531 341.683594 167.816406 Z M 336.964844 172.535156 " fill-opacity="1" fill-rule="nonzero"/><path fill="#046147" d="M 212.464844 317.433594 C 212.175781 317.433594 211.890625 317.402344 211.605469 317.332031 C 211.324219 317.265625 211.054688 317.167969 210.796875 317.039062 C 210.539062 316.90625 210.296875 316.75 210.078125 316.5625 C 209.855469 316.375 209.65625 316.164062 209.484375 315.933594 C 209.3125 315.699219 209.171875 315.449219 209.054688 315.183594 C 208.941406 314.917969 208.859375 314.640625 208.8125 314.355469 C 208.761719 314.070312 208.746094 313.78125 208.765625 313.492188 C 208.785156 313.203125 208.835938 312.921875 208.921875 312.644531 L 218.558594 281.066406 C 218.652344 280.761719 218.785156 280.472656 218.953125 280.199219 C 219.121094 279.929688 219.320312 279.683594 219.554688 279.460938 C 219.785156 279.242188 220.042969 279.054688 220.320312 278.902344 C 220.601562 278.746094 220.898438 278.632812 221.207031 278.554688 C 221.519531 278.476562 221.832031 278.441406 222.152344 278.445312 C 222.472656 278.449219 222.785156 278.492188 223.09375 278.578125 C 223.402344 278.664062 223.695312 278.785156 223.972656 278.949219 C 224.246094 279.109375 224.5 279.300781 224.726562 279.527344 L 246.652344 301.457031 C 246.878906 301.683594 247.070312 301.9375 247.234375 302.210938 C 247.394531 302.488281 247.515625 302.78125 247.601562 303.089844 C 247.6875 303.398438 247.730469 303.710938 247.734375 304.03125 C 247.742188 304.351562 247.703125 304.667969 247.625 304.976562 C 247.546875 305.285156 247.433594 305.582031 247.277344 305.863281 C 247.125 306.144531 246.9375 306.398438 246.71875 306.632812 C 246.496094 306.863281 246.25 307.0625 245.980469 307.230469 C 245.707031 307.398438 245.417969 307.53125 245.113281 307.625 L 213.539062 317.265625 C 213.191406 317.375 212.832031 317.429688 212.464844 317.433594 Z M 223.855469 289.132812 L 218.046875 308.144531 L 237.058594 302.335938 Z M 223.855469 289.132812 " fill-opacity="1" fill-rule="nonzero"/></svg>